<svg width="35" height="48" viewBox="0 0 35 48" fill="none" xmlns="http://www.w3.org/2000/svg">
<path d="M2.32134 0.899414C2.32134 0.899414 18.8477 7.97151 11.2107 26.299L7.77328 27.7277C7.77328 27.7277 -5.14032 14.0749 2.32134 0.899414Z" fill="white"/>
<path d="M3.43667 4.38733C3.43667 4.38733 15.6664 9.62116 10.0154 23.1824L7.47229 24.2397C7.47229 24.2397 -2.08385 14.1368 3.43667 4.38733Z" fill="#FFCE55"/>
<path d="M32.9189 1.172C32.9189 1.172 41.1254 17.1659 23.5475 26.3972L19.99 25.3029C19.99 25.3029 18.7652 6.5506 32.9189 1.172Z" fill="white"/>
<path d="M31.4838 4.45129C31.4838 4.45129 37.5558 16.2867 24.5488 23.1178L21.9162 22.3082C21.9162 22.3082 21.0104 8.43167 31.4838 4.45129Z" fill="#FFCE55"/>
<path d="M13.6892 20.7053H20.8699C26.7037 20.7053 31.4404 25.442 31.4404 31.2758V38.2898C31.4404 43.5932 27.1343 47.8993 21.8309 47.8993H12.4538C7.30095 47.8993 3.11865 43.7161 3.11865 38.5642V31.2758C3.11865 25.442 7.85529 20.7053 13.6892 20.7053Z" fill="white" stroke="#E6E6E6" stroke-width="0.0476236" stroke-miterlimit="10"/>
<path d="M3.18921 30.4775L7.10101 31.9224" stroke="#002DA3" stroke-width="0.476236" stroke-miterlimit="10"/>
<path d="M28.5105 31.9436L31.4403 30.4568" stroke="#002DA3" stroke-width="0.476236" stroke-miterlimit="10"/>
<path d="M11.8267 36.5113C14.4369 36.5113 16.5529 34.412 16.5529 31.8223C16.5529 29.2326 14.4369 27.1333 11.8267 27.1333C9.21656 27.1333 7.10059 29.2326 7.10059 31.8223C7.10059 34.412 9.21656 36.5113 11.8267 36.5113Z" stroke="#002DA3" stroke-width="0.476236" stroke-miterlimit="10"/>
<path d="M23.641 36.5113C26.2511 36.5113 28.3671 34.412 28.3671 31.8223C28.3671 29.2326 26.2511 27.1333 23.641 27.1333C21.0308 27.1333 18.9148 29.2326 18.9148 31.8223C18.9148 34.412 21.0308 36.5113 23.641 36.5113Z" stroke="black" stroke-width="0.0952471" stroke-miterlimit="10"/>
<path d="M23.641 36.5113C26.2511 36.5113 28.3671 34.412 28.3671 31.8223C28.3671 29.2326 26.2511 27.1333 23.641 27.1333C21.0308 27.1333 18.9148 29.2326 18.9148 31.8223C18.9148 34.412 21.0308 36.5113 23.641 36.5113Z" stroke="#002DA3" stroke-width="0.476236" stroke-miterlimit="10"/>
<path d="M13.2814 32.8115C13.8236 31.8466 13.6117 30.6985 12.8082 30.247C12.0048 29.7956 10.9139 30.2118 10.3718 31.1767C9.82963 32.1416 10.0415 33.2898 10.845 33.7412C11.6484 34.1927 12.7393 33.7764 13.2814 32.8115Z" fill="black"/>
<path d="M13.2147 32.3922C13.3835 32.0918 13.3129 31.7317 13.057 31.588C12.8011 31.4442 12.4568 31.5711 12.288 31.8715C12.1192 32.1719 12.1899 32.532 12.4458 32.6757C12.7017 32.8195 13.0459 32.6926 13.2147 32.3922Z" fill="#FFFFF2"/>
<path d="M24.656 33.8379C25.5037 33.4762 25.8387 32.3577 25.4043 31.3398C24.9699 30.3218 23.9306 29.7898 23.0829 30.1515C22.2353 30.5133 21.9003 31.6317 22.3347 32.6497C22.7691 33.6677 23.8084 34.1996 24.656 33.8379Z" fill="black"/>
<path d="M23.1145 32.6338C23.3845 32.5186 23.4937 32.1683 23.3585 31.8514C23.2233 31.5345 22.8948 31.371 22.6248 31.4862C22.3548 31.6014 22.2456 31.9517 22.3809 32.2686C22.5161 32.5855 22.8446 32.749 23.1145 32.6338Z" fill="#FFFFF2"/>
<path d="M16.5537 31.8464C16.5537 31.8464 17.8805 30.5425 18.9139 31.8226L16.5537 31.8464Z" fill="#002DA3"/>
<path d="M7.02393 27.8994L12.2644 24.8962" stroke="#002DA3" stroke-width="0.476236" stroke-miterlimit="10"/>
<path d="M28.8799 27.8994L23.6404 24.8962" stroke="#002DA3" stroke-width="0.476236" stroke-miterlimit="10"/>
<g opacity="0.48">
<path d="M7.14189 40.4315C8.24446 40.4315 9.13827 39.9433 9.13827 39.3409C9.13827 38.7386 8.24446 38.2504 7.14189 38.2504C6.03932 38.2504 5.14551 38.7386 5.14551 39.3409C5.14551 39.9433 6.03932 40.4315 7.14189 40.4315Z" fill="#FFCE55"/>
<path d="M27.6988 40.4314C28.8013 40.4314 29.6952 39.9431 29.6952 39.3408C29.6952 38.7385 28.8013 38.2502 27.6988 38.2502C26.5962 38.2502 25.7024 38.7385 25.7024 39.3408C25.7024 39.9431 26.5962 40.4314 27.6988 40.4314Z" fill="#FFCE55"/>
</g>
<path d="M17.8994 38.8316C19.4412 38.8316 20.6911 38.2853 20.6911 37.6115C20.6911 36.9376 19.4412 36.3914 17.8994 36.3914C16.3575 36.3914 15.1077 36.9376 15.1077 37.6115C15.1077 38.2853 16.3575 38.8316 17.8994 38.8316Z" fill="#002DA3"/>
<path d="M17.9001 38.5849C18.2856 38.5849 18.5982 38.4485 18.5982 38.2801C18.5982 38.1118 18.2856 37.9753 17.9001 37.9753C17.5145 37.9753 17.2019 38.1118 17.2019 38.2801C17.2019 38.4485 17.5145 38.5849 17.9001 38.5849Z" fill="white"/>
<path d="M14.3689 39.9796C14.6918 40.4016 15.2737 41.0416 16.1576 41.4617C17.012 41.8684 17.7321 41.8703 18.2759 41.8722C19.0093 41.8741 19.5037 41.876 20.0418 41.5302C20.7143 41.0978 21.0371 40.392 21.1695 40.0444" stroke="#002DA3" stroke-width="0.476236" stroke-miterlimit="10"/>
</svg>
