<svg width="96" height="34" viewBox="0 0 96 34" fill="none" xmlns="http://www.w3.org/2000/svg">
<path fill-rule="evenodd" clip-rule="evenodd" d="M11.9114 12.8916C12.2922 11.9806 12.4825 10.9132 12.4825 9.68946C12.4825 8.41131 12.2922 7.31673 11.9114 6.4057C11.5307 5.49468 10.9868 4.74683 10.2798 4.16214C9.57273 3.57746 8.7229 3.14914 7.73031 2.87719C6.75131 2.60525 5.65674 2.46928 4.44659 2.46928C3.87551 2.46928 3.18885 2.49647 2.38662 2.55086C1.59798 2.59165 0.836542 2.68003 0.102295 2.81601V16.5833C0.836542 16.7329 1.58439 16.8281 2.34583 16.8689C3.10727 16.9232 3.77353 16.9504 4.34461 16.9504C5.59555 16.9504 6.72412 16.8009 7.73031 16.5017C8.7365 16.2026 9.58632 15.7539 10.2798 15.1556C10.9868 14.5573 11.5307 13.8027 11.9114 12.8916ZM3.79393 14.2174C3.60357 14.2038 3.4336 14.1902 3.28403 14.1766V5.24313C3.48799 5.21594 3.70555 5.20234 3.9367 5.20234C4.16785 5.18874 4.3922 5.18194 4.60976 5.18194C6.20063 5.18194 7.36319 5.56267 8.09743 6.32412C8.83168 7.08557 9.1988 8.20735 9.1988 9.68946C9.1988 11.1036 8.81129 12.2118 8.03625 13.014C7.2748 13.8163 6.09865 14.2174 4.50778 14.2174H3.79393Z" fill="#212121"/>
<path fill-rule="evenodd" clip-rule="evenodd" d="M14.8546 8.996C14.5691 9.70306 14.4263 10.5325 14.4263 11.4843C14.4263 12.273 14.5351 13.0072 14.7527 13.6871C14.9838 14.3669 15.3305 14.9584 15.7928 15.4615C16.2688 15.951 16.8602 16.3386 17.5673 16.6241C18.2879 16.9096 19.131 17.0524 20.0964 17.0524C20.4771 17.0524 20.8578 17.032 21.2385 16.9912C21.6192 16.9504 21.9728 16.896 22.2991 16.8281C22.639 16.7737 22.945 16.7057 23.2169 16.6241C23.4889 16.5425 23.7064 16.4609 23.8696 16.3794L23.4617 13.9114C23.1217 14.061 22.6798 14.1902 22.1359 14.299C21.6056 14.3941 21.0618 14.4417 20.5043 14.4417C19.6341 14.4417 18.9406 14.2582 18.4239 13.891C17.9072 13.5239 17.6149 13.0276 17.5469 12.4021H24.4407C24.4542 12.239 24.4678 12.0554 24.4814 11.8514C24.495 11.6339 24.5018 11.4367 24.5018 11.26C24.5018 9.45151 24.0599 8.08498 23.1761 7.16036C22.2923 6.22214 21.0889 5.75303 19.5661 5.75303C18.9134 5.75303 18.2743 5.87541 17.6489 6.12016C17.037 6.36491 16.4931 6.72524 16.0172 7.20115C15.5413 7.67706 15.1538 8.27534 14.8546 8.996ZM21.4221 9.56709C21.5037 9.81184 21.5513 10.0634 21.5648 10.3217H17.5469C17.5877 10.0634 17.6489 9.81184 17.7304 9.56709C17.8256 9.30874 17.9548 9.08438 18.118 8.89402C18.2811 8.70365 18.4851 8.55408 18.7298 8.4453C18.9746 8.32293 19.2669 8.26174 19.6069 8.26174C19.9604 8.26174 20.2527 8.32293 20.4839 8.4453C20.7286 8.56768 20.9258 8.72405 21.0754 8.91441C21.2385 9.10478 21.3541 9.32233 21.4221 9.56709Z" fill="#212121"/>
<path d="M34.4547 11.8514C35.1209 10.043 35.76 8.10537 36.3719 6.03858H33.2309C33.0949 6.56887 32.9386 7.14676 32.7618 7.77224C32.5986 8.38412 32.4219 9.00959 32.2315 9.64867C32.0548 10.2741 31.8712 10.886 31.6808 11.4843C31.4905 12.0826 31.3069 12.6265 31.1301 13.116C30.9398 12.6265 30.7358 12.0826 30.5183 11.4843C30.3143 10.886 30.1104 10.2741 29.9064 9.64867C29.7024 9.00959 29.5053 8.38412 29.3149 7.77224C29.1382 7.14676 28.9818 6.56887 28.8458 6.03858H25.6233C26.2352 8.14616 26.8878 10.0498 27.5813 11.7495C28.2747 13.4355 28.9682 14.9584 29.6616 16.3182C29.4577 16.8349 29.2061 17.236 28.907 17.5215C28.6215 17.8207 28.2068 17.9702 27.6629 17.9702C27.3909 17.9702 27.1326 17.9498 26.8878 17.909C26.6431 17.8683 26.3643 17.7935 26.0516 17.6847L25.5213 20.1118C25.7797 20.2206 26.106 20.3158 26.5003 20.3974C26.9082 20.4925 27.3501 20.5401 27.826 20.5401C28.3971 20.5401 28.8934 20.4721 29.3149 20.3362C29.75 20.2138 30.1376 20.0098 30.4775 19.7243C30.8174 19.4523 31.1301 19.0988 31.4157 18.6637C31.7012 18.2422 31.9868 17.7255 32.2723 17.1136C33.0609 15.4139 33.7884 13.6599 34.4547 11.8514Z" fill="#212121"/>
<path d="M43.1611 14.2378C42.8756 14.3058 42.5084 14.3397 42.0597 14.3397C41.1623 14.3397 40.4009 14.2514 39.7754 14.0746C39.1635 13.8842 38.6468 13.6735 38.2253 13.4423L37.3279 15.9714C37.5183 16.0802 37.7494 16.1958 38.0214 16.3182C38.3069 16.4405 38.64 16.5561 39.0208 16.6649C39.4151 16.7737 39.8638 16.8621 40.3669 16.93C40.87 17.0116 41.4343 17.0524 42.0597 17.0524C43.9225 17.0524 45.3162 16.6921 46.2409 15.9714C47.1655 15.2372 47.6278 14.2106 47.6278 12.8916C47.6278 12.2118 47.5394 11.6339 47.3626 11.158C47.1859 10.6821 46.9139 10.2673 46.5468 9.91382C46.1933 9.56029 45.7446 9.25435 45.2007 8.996C44.6568 8.72405 44.0177 8.4521 43.2835 8.18016C42.9299 8.05778 42.6036 7.9422 42.3045 7.83342C42.0189 7.71105 41.7606 7.58187 41.5294 7.4459C41.3119 7.29633 41.1419 7.13316 41.0195 6.9564C40.8972 6.77963 40.836 6.56207 40.836 6.30372C40.836 5.86861 40.9991 5.54907 41.3255 5.34511C41.6654 5.12755 42.2161 5.01878 42.9775 5.01878C43.6574 5.01878 44.2353 5.10036 44.7112 5.26353C45.2007 5.4131 45.6426 5.58986 46.0369 5.79382L46.9547 3.28512C46.506 3.04036 45.9349 2.81601 45.2415 2.61205C44.548 2.40809 43.7254 2.30611 42.7736 2.30611C41.9713 2.30611 41.2507 2.40809 40.6116 2.61205C39.9726 2.80241 39.4287 3.08116 38.98 3.44828C38.5313 3.81541 38.1845 4.26412 37.9398 4.79442C37.695 5.31112 37.5727 5.8958 37.5727 6.54848C37.5727 7.20115 37.6882 7.75864 37.9194 8.22095C38.1505 8.66966 38.4497 9.05719 38.8168 9.38352C39.1839 9.69626 39.5986 9.96141 40.0609 10.179C40.5232 10.3829 40.9855 10.5665 41.4479 10.7297C42.5084 11.0832 43.2563 11.4163 43.6914 11.7291C44.1265 12.0282 44.3441 12.4089 44.3441 12.8712C44.3441 13.0888 44.3101 13.286 44.2421 13.4627C44.1741 13.6395 44.0517 13.7959 43.8749 13.9318C43.6982 14.0542 43.4602 14.1562 43.1611 14.2378Z" fill="#212121"/>
<path fill-rule="evenodd" clip-rule="evenodd" d="M59.5395 13.6667C59.7435 12.9868 59.8455 12.2322 59.8455 11.4027C59.8455 10.5461 59.7163 9.77105 59.4579 9.07758C59.2132 8.38412 58.8529 7.79943 58.377 7.32352C57.9011 6.83402 57.3164 6.46009 56.6229 6.20174C55.9295 5.9298 55.1408 5.79382 54.257 5.79382C53.8899 5.79382 53.5024 5.81422 53.0945 5.85501C52.7002 5.88221 52.3058 5.923 51.9115 5.97739C51.5308 6.03178 51.1637 6.09976 50.8101 6.18135C50.4566 6.24933 50.1439 6.32412 49.8719 6.4057V20.5401H52.9109V16.5017C53.2508 16.6513 53.6044 16.7669 53.9715 16.8485C54.3386 16.93 54.7329 16.9708 55.1544 16.9708C55.9159 16.9708 56.5889 16.8349 57.1736 16.5629C57.7583 16.291 58.2478 15.9102 58.6421 15.4207C59.0364 14.9312 59.3356 14.3465 59.5395 13.6667ZM56.113 9.24075C56.5346 9.79824 56.7453 10.5461 56.7453 11.4843C56.7453 13.4287 56.0247 14.4009 54.5834 14.4009C54.2706 14.4009 53.9579 14.3601 53.6452 14.2786C53.346 14.197 53.1013 14.095 52.9109 13.9726V8.4861C53.0605 8.4589 53.2508 8.43851 53.482 8.42491C53.7131 8.39771 53.9647 8.38412 54.2366 8.38412C55.0661 8.38412 55.6915 8.66966 56.113 9.24075Z" fill="#212121"/>
<path fill-rule="evenodd" clip-rule="evenodd" d="M62.0995 8.996C61.814 9.70306 61.6712 10.5325 61.6712 11.4843C61.6712 12.273 61.78 13.0072 61.9975 13.6871C62.2287 14.3669 62.5754 14.9584 63.0377 15.4615C63.5136 15.951 64.1051 16.3386 64.8122 16.6241C65.5328 16.9096 66.3758 17.0524 67.3412 17.0524C67.7219 17.0524 68.1027 17.032 68.4834 16.9912C68.8641 16.9504 69.2176 16.896 69.544 16.8281C69.8839 16.7737 70.1898 16.7057 70.4618 16.6241C70.7337 16.5425 70.9513 16.4609 71.1144 16.3794L70.7065 13.9114C70.3666 14.061 69.9247 14.1902 69.3808 14.299C68.8505 14.3941 68.3066 14.4417 67.7491 14.4417C66.8789 14.4417 66.1855 14.2582 65.6688 13.891C65.1521 13.5239 64.8597 13.0276 64.7918 12.4021H71.6855C71.6991 12.239 71.7127 12.0554 71.7263 11.8514C71.7399 11.6339 71.7467 11.4367 71.7467 11.26C71.7467 9.45151 71.3048 8.08498 70.421 7.16036C69.5372 6.22214 68.3338 5.75303 66.8109 5.75303C66.1583 5.75303 65.5192 5.87541 64.8937 6.12016C64.2819 6.36491 63.738 6.72524 63.2621 7.20115C62.7862 7.67706 62.3987 8.27534 62.0995 8.996ZM68.667 9.56709C68.7485 9.81184 68.7961 10.0634 68.8097 10.3217H64.7918C64.8326 10.0634 64.8937 9.81184 64.9753 9.56709C65.0705 9.30874 65.1997 9.08438 65.3628 8.89402C65.526 8.70365 65.73 8.55408 65.9747 8.4453C66.2195 8.32293 66.5118 8.26174 66.8517 8.26174C67.2053 8.26174 67.4976 8.32293 67.7287 8.4453C67.9735 8.56768 68.1707 8.72405 68.3202 8.91441C68.4834 9.10478 68.599 9.32233 68.667 9.56709Z" fill="#212121"/>
<path fill-rule="evenodd" clip-rule="evenodd" d="M80.1902 6.05897C79.592 5.85501 78.8441 5.75303 77.9467 5.75303C77.5932 5.75303 77.2396 5.77343 76.8861 5.81422C76.5462 5.84141 76.2199 5.88221 75.9071 5.9366C75.5944 5.97739 75.3021 6.03178 75.0301 6.09976C74.7718 6.15415 74.5542 6.20854 74.3774 6.26293L74.765 8.71045C75.1321 8.57448 75.5672 8.4725 76.0703 8.40451C76.5734 8.32293 77.0833 8.28214 77.6 8.28214C78.375 8.28214 78.9189 8.43851 79.2316 8.75125C79.5444 9.06398 79.7007 9.4787 79.7007 9.9954V10.2809C79.5104 10.2266 79.2588 10.1858 78.9461 10.1586C78.647 10.1178 78.3002 10.0974 77.9059 10.0974C77.3212 10.0974 76.757 10.1586 76.2131 10.2809C75.6692 10.3897 75.1865 10.5733 74.765 10.8316C74.3435 11.09 74.0035 11.4367 73.7452 11.8718C73.5004 12.3069 73.3781 12.8372 73.3781 13.4627C73.3781 14.1154 73.4868 14.6661 73.7044 15.1148C73.9219 15.5635 74.2347 15.9306 74.6426 16.2162C75.0505 16.4881 75.5332 16.6853 76.0907 16.8077C76.6618 16.93 77.294 16.9912 77.9875 16.9912C79.0889 16.9912 80.0271 16.9232 80.8021 16.7873C81.5771 16.6649 82.1822 16.5561 82.6173 16.4609V10.1382C82.6173 9.4719 82.5425 8.86682 82.393 8.32293C82.2434 7.77903 81.9851 7.31673 81.6179 6.936C81.2644 6.55527 80.7885 6.26293 80.1902 6.05897ZM79.0481 14.6253C78.7761 14.6389 78.4906 14.6457 78.1915 14.6457C77.634 14.6457 77.1921 14.5573 76.8657 14.3805C76.553 14.1902 76.3966 13.857 76.3966 13.3811C76.3966 13.1364 76.451 12.9324 76.5598 12.7693C76.6686 12.6061 76.8181 12.4769 77.0085 12.3817C77.1989 12.2866 77.4164 12.2254 77.6612 12.1982C77.9195 12.1574 78.1915 12.137 78.477 12.137C78.681 12.137 78.9053 12.1506 79.1501 12.1778C79.3948 12.205 79.5784 12.2322 79.7007 12.2594V14.5641C79.5376 14.5913 79.32 14.6117 79.0481 14.6253Z" fill="#212121"/>
<path d="M89.3221 8.89402C89.0094 9.24755 88.7035 9.58748 88.4043 9.91382V0.939575L85.3653 1.42908V16.7669H88.4043V12.0758C88.7442 12.3477 89.0842 12.6809 89.4241 13.0752C89.7776 13.4695 90.1108 13.8842 90.4235 14.3194C90.7362 14.7409 91.0286 15.1692 91.3005 15.6043C91.5861 16.0258 91.8376 16.4133 92.0552 16.7669H95.5428C95.3117 16.3182 95.0261 15.8219 94.6862 15.278C94.3463 14.7341 93.9724 14.1902 93.5644 13.6463C93.1565 13.1024 92.735 12.5789 92.2999 12.0758C91.8648 11.5591 91.4433 11.1172 91.0354 10.7501C91.8512 9.94781 92.599 9.17276 93.2789 8.42491C93.9724 7.66346 94.6794 6.86801 95.4001 6.03858H91.79C91.5996 6.26973 91.3685 6.54168 91.0965 6.85442C90.8382 7.16715 90.5595 7.50029 90.2603 7.85382C89.9612 8.19375 89.6485 8.54049 89.3221 8.89402Z" fill="#212121"/>
<path fill-rule="evenodd" clip-rule="evenodd" d="M4.14866 32.185C4.21239 32.3549 4.27401 32.527 4.33349 32.7013H5.20031C5.0346 32.2296 4.87526 31.7941 4.72229 31.3946C4.57357 30.9952 4.42697 30.617 4.28251 30.2601C4.14228 29.9032 4.00206 29.5632 3.86184 29.2403C3.72162 28.9174 3.57715 28.5987 3.42843 28.2842H2.66997C2.52125 28.5987 2.37678 28.9174 2.23655 29.2403C2.09633 29.5632 1.95399 29.9032 1.80952 30.2601C1.6693 30.617 1.52483 30.9952 1.37611 31.3946C1.22739 31.7941 1.07017 32.2296 0.904457 32.7013H1.73941L1.91787 32.1914C1.98161 32.0171 2.04322 31.8408 2.10271 31.6623H3.96382C4.02331 31.8408 4.08492 32.015 4.14866 32.185ZM2.69546 29.9605C2.82293 29.6376 2.93553 29.3635 3.03326 29.1383C3.12674 29.355 3.23722 29.627 3.3647 29.9542C3.49217 30.2814 3.62389 30.634 3.75986 31.0122H2.30667C2.44264 30.634 2.57224 30.2835 2.69546 29.9605Z" fill="#212121"/>
<path d="M7.54961 27.8062C7.41364 27.7722 7.25642 27.7552 7.07796 27.7552C6.6233 27.7552 6.28337 27.8784 6.05817 28.1249C5.83297 28.3671 5.72037 28.7028 5.72037 29.132V32.7013H6.49158V30.0115H7.70258V29.3678H6.49158V29.1447C6.49158 29.0385 6.5022 28.9407 6.52345 28.8515C6.54469 28.758 6.58081 28.6794 6.6318 28.6157C6.68279 28.5519 6.75078 28.5031 6.83576 28.4691C6.92074 28.4308 7.02484 28.4117 7.14807 28.4117C7.25855 28.4117 7.36053 28.4223 7.45401 28.4436C7.55174 28.4648 7.63672 28.4925 7.70895 28.5264L7.85555 27.8891C7.78756 27.8636 7.68558 27.836 7.54961 27.8062Z" fill="#212121"/>
<path d="M9.90399 29.9988C10.0187 30.02 10.1079 30.0413 10.1717 30.0625L10.3055 29.4124C10.2673 29.3996 10.2163 29.3869 10.1526 29.3742C10.0888 29.3572 10.023 29.3444 9.95498 29.3359C9.88699 29.3232 9.819 29.3147 9.75102 29.3104C9.68303 29.3019 9.62355 29.2977 9.57256 29.2977C9.30061 29.2977 9.05204 29.3232 8.82684 29.3742C8.60588 29.4209 8.42104 29.4719 8.27233 29.5271V32.7013H9.04354V30.0307C9.08178 30.0179 9.14764 30.003 9.24112 29.986C9.33885 29.969 9.43021 29.9605 9.51519 29.9605C9.66391 29.9605 9.79351 29.9733 9.90399 29.9988Z" fill="#212121"/>
<path d="M10.8493 32.7013H11.6205V29.3678H10.8493V32.7013Z" fill="#212121"/>
<path d="M11.5632 28.7368C11.6567 28.6518 11.7034 28.5371 11.7034 28.3926C11.7034 28.2439 11.6567 28.127 11.5632 28.042C11.4697 27.9571 11.3592 27.9146 11.2318 27.9146C11.1 27.9146 10.9874 27.9571 10.8939 28.042C10.8005 28.127 10.7537 28.2439 10.7537 28.3926C10.7537 28.5371 10.8005 28.6518 10.8939 28.7368C10.9874 28.8218 11.1 28.8643 11.2318 28.8643C11.3592 28.8643 11.4697 28.8218 11.5632 28.7368Z" fill="#212121"/>
<path d="M12.5343 30.3493C12.4578 30.5618 12.4196 30.7913 12.4196 31.0377C12.4196 31.2884 12.4536 31.5221 12.5216 31.7388C12.5896 31.9513 12.6915 32.1361 12.8275 32.2933C12.9677 32.4463 13.1419 32.5674 13.3502 32.6566C13.5626 32.7416 13.8112 32.7841 14.0959 32.7841C14.2786 32.7841 14.4549 32.7671 14.6249 32.7331C14.7991 32.6991 14.9287 32.6609 15.0137 32.6184L14.9053 31.981C14.8119 32.0193 14.7014 32.0511 14.5739 32.0766C14.4464 32.1021 14.3168 32.1149 14.1851 32.1149C13.8324 32.1149 13.5817 32.0193 13.433 31.828C13.2843 31.6326 13.2099 31.3691 13.2099 31.0377C13.2099 30.6935 13.2885 30.4279 13.4458 30.241C13.603 30.0498 13.8324 29.9542 14.1341 29.9542C14.2616 29.9542 14.3806 29.9669 14.491 29.9924C14.6058 30.0179 14.7077 30.0498 14.797 30.088L14.9627 29.457C14.6823 29.3423 14.3848 29.2849 14.0704 29.2849C13.8154 29.2849 13.586 29.3295 13.382 29.4188C13.1781 29.508 13.0039 29.6312 12.8594 29.7884C12.7192 29.9457 12.6108 30.1326 12.5343 30.3493Z" fill="#212121"/>
<path fill-rule="evenodd" clip-rule="evenodd" d="M17.3635 29.3805C17.1893 29.3168 16.9747 29.2849 16.7198 29.2849C16.5073 29.2849 16.3076 29.3019 16.1207 29.3359C15.9337 29.3699 15.7914 29.4039 15.6936 29.4379L15.7892 30.0625C15.8827 30.0285 16.0038 29.9988 16.1525 29.9733C16.3012 29.9478 16.4648 29.935 16.6433 29.935C16.775 29.935 16.8834 29.952 16.9684 29.986C17.0576 30.02 17.1277 30.0689 17.1787 30.1326C17.2339 30.1921 17.2722 30.2622 17.2934 30.343C17.3147 30.4237 17.3253 30.5087 17.3253 30.5979V30.7254C17.2191 30.6999 17.1192 30.6829 17.0257 30.6744C16.9322 30.6617 16.843 30.6553 16.758 30.6553C16.5753 30.6553 16.399 30.6744 16.229 30.7126C16.0633 30.7466 15.9167 30.8061 15.7892 30.8911C15.6618 30.9718 15.5598 31.0781 15.4833 31.2098C15.4111 31.3415 15.3749 31.503 15.3749 31.6942C15.3749 31.8939 15.4068 32.0618 15.4705 32.1977C15.5385 32.3337 15.6299 32.4442 15.7446 32.5292C15.8636 32.6141 16.0059 32.6758 16.1716 32.714C16.3374 32.7522 16.5201 32.7714 16.7198 32.7714C17.0215 32.7714 17.2913 32.7522 17.5292 32.714C17.7714 32.68 17.952 32.6503 18.071 32.6248V30.6043C18.071 30.4088 18.0476 30.2304 18.0009 30.0689C17.9584 29.9032 17.884 29.763 17.7778 29.6482C17.6758 29.5335 17.5377 29.4443 17.3635 29.3805ZM17.3253 32.1212C17.2021 32.1467 17.0215 32.1595 16.7835 32.1595C16.5881 32.1595 16.433 32.1255 16.3182 32.0575C16.2035 31.9853 16.1462 31.8578 16.1462 31.6751C16.1462 31.5816 16.1674 31.5051 16.2099 31.4456C16.2524 31.3819 16.3076 31.333 16.3756 31.299C16.4478 31.265 16.5265 31.2417 16.6114 31.2289C16.7007 31.2162 16.7878 31.2098 16.8728 31.2098C16.9705 31.2098 17.0597 31.2162 17.1404 31.2289C17.2212 31.2417 17.2828 31.2544 17.3253 31.2672V32.1212Z" fill="#212121"/>
<path d="M19.5955 29.355C19.3575 29.3933 19.1642 29.4336 19.0155 29.4761V32.7013H19.7867V30.0115C19.8377 30.003 19.9163 29.9924 20.0225 29.9797C20.1287 29.9669 20.2307 29.9605 20.3284 29.9605C20.4602 29.9605 20.5706 29.9797 20.6599 30.0179C20.7533 30.0519 20.8256 30.1093 20.8766 30.19C20.9318 30.2665 20.97 30.3685 20.9913 30.4959C21.0168 30.6192 21.0295 30.77 21.0295 30.9485V32.7013H21.8007V30.8274C21.8007 30.6022 21.7774 30.3961 21.7306 30.2091C21.6881 30.0179 21.6117 29.8564 21.5012 29.7247C21.395 29.5887 21.2505 29.4846 21.0678 29.4124C20.8851 29.3359 20.6577 29.2977 20.3858 29.2977C20.0969 29.2977 19.8334 29.3168 19.5955 29.355Z" fill="#212121"/>
<path d="M27.0613 32.7013V32.0065H25.0727V28.2842H24.2697V32.7013H27.0613Z" fill="#212121"/>
<path fill-rule="evenodd" clip-rule="evenodd" d="M29.3889 29.3805C29.2146 29.3168 29.0001 29.2849 28.7451 29.2849C28.5327 29.2849 28.333 29.3019 28.146 29.3359C27.959 29.3699 27.8167 29.4039 27.719 29.4379L27.8146 30.0625C27.908 30.0285 28.0291 29.9988 28.1779 29.9733C28.3266 29.9478 28.4902 29.935 28.6686 29.935C28.8004 29.935 28.9087 29.952 28.9937 29.986C29.0829 30.02 29.153 30.0689 29.204 30.1326C29.2593 30.1921 29.2975 30.2622 29.3187 30.343C29.34 30.4237 29.3506 30.5087 29.3506 30.5979V30.7254C29.2444 30.6999 29.1445 30.6829 29.0511 30.6744C28.9576 30.6617 28.8683 30.6553 28.7834 30.6553C28.6006 30.6553 28.4243 30.6744 28.2543 30.7126C28.0886 30.7466 27.942 30.8061 27.8146 30.8911C27.6871 30.9718 27.5851 31.0781 27.5086 31.2098C27.4364 31.3415 27.4003 31.503 27.4003 31.6942C27.4003 31.8939 27.4321 32.0618 27.4959 32.1977C27.5639 32.3337 27.6552 32.4442 27.7699 32.5292C27.8889 32.6141 28.0313 32.6758 28.197 32.714C28.3627 32.7522 28.5454 32.7714 28.7451 32.7714C29.0468 32.7714 29.3166 32.7522 29.5546 32.714C29.7968 32.68 29.9774 32.6503 30.0963 32.6248V30.6043C30.0963 30.4088 30.073 30.2304 30.0262 30.0689C29.9837 29.9032 29.9094 29.763 29.8032 29.6482C29.7012 29.5335 29.5631 29.4443 29.3889 29.3805ZM29.3506 32.1212C29.2274 32.1467 29.0468 32.1595 28.8089 32.1595C28.6134 32.1595 28.4583 32.1255 28.3436 32.0575C28.2289 31.9853 28.1715 31.8578 28.1715 31.6751C28.1715 31.5816 28.1927 31.5051 28.2352 31.4456C28.2777 31.3819 28.333 31.333 28.4009 31.299C28.4732 31.265 28.5518 31.2417 28.6368 31.2289C28.726 31.2162 28.8131 31.2098 28.8981 31.2098C28.9958 31.2098 29.085 31.2162 29.1658 31.2289C29.2465 31.2417 29.3081 31.2544 29.3506 31.2672V32.1212Z" fill="#212121"/>
<path d="M31.6208 29.355C31.3828 29.3933 31.1895 29.4336 31.0408 29.4761V32.7013H31.812V30.0115C31.863 30.003 31.9416 29.9924 32.0478 29.9797C32.1541 29.9669 32.256 29.9605 32.3538 29.9605C32.4855 29.9605 32.596 29.9797 32.6852 30.0179C32.7787 30.0519 32.8509 30.1093 32.9019 30.19C32.9571 30.2665 32.9954 30.3685 33.0166 30.4959C33.0421 30.6192 33.0549 30.77 33.0549 30.9485V32.7013H33.8261V30.8274C33.8261 30.6022 33.8027 30.3961 33.756 30.2091C33.7135 30.0179 33.637 29.8564 33.5265 29.7247C33.4203 29.5887 33.2758 29.4846 33.0931 29.4124C32.9104 29.3359 32.6831 29.2977 32.4111 29.2977C32.1222 29.2977 31.8587 29.3168 31.6208 29.355Z" fill="#212121"/>
<path fill-rule="evenodd" clip-rule="evenodd" d="M37.1147 33.5298C37.3866 33.2834 37.5226 32.8946 37.5226 32.3634V29.4761C37.3653 29.4336 37.1741 29.3933 36.9489 29.355C36.7237 29.3168 36.4858 29.2977 36.2351 29.2977C35.9759 29.2977 35.7443 29.338 35.5404 29.4188C35.3364 29.4995 35.1622 29.6121 35.0177 29.7566C34.8775 29.9011 34.7691 30.0753 34.6927 30.2792C34.6204 30.4832 34.5843 30.7063 34.5843 30.9485C34.5843 31.2077 34.6183 31.4371 34.6863 31.6368C34.7585 31.8323 34.8562 31.9959 34.9795 32.1276C35.1069 32.2593 35.2578 32.3592 35.432 32.4272C35.6105 32.4952 35.8059 32.5292 36.0184 32.5292C36.1798 32.5292 36.3222 32.51 36.4454 32.4718C36.5729 32.4336 36.6749 32.3953 36.7514 32.3571V32.4845C36.7514 32.7352 36.6855 32.9243 36.5538 33.0518C36.422 33.1793 36.2011 33.243 35.8909 33.243C35.6954 33.243 35.5127 33.226 35.3428 33.192C35.1771 33.158 35.0283 33.1134 34.8966 33.0582L34.7564 33.7147C34.9136 33.7699 35.0878 33.8145 35.279 33.8485C35.4745 33.8825 35.6742 33.8995 35.8782 33.8995C36.4348 33.8995 36.847 33.7763 37.1147 33.5298ZM35.585 31.6687C35.4447 31.5157 35.3746 31.2757 35.3746 30.9485C35.3746 30.6468 35.449 30.4046 35.5977 30.2219C35.7464 30.0349 35.961 29.9414 36.2415 29.9414C36.3647 29.9414 36.4667 29.9478 36.5474 29.9605C36.6281 29.969 36.6961 29.9797 36.7514 29.9924V31.7197C36.6834 31.7664 36.5941 31.8068 36.4837 31.8408C36.3774 31.8748 36.2627 31.8918 36.1395 31.8918C35.9143 31.8918 35.7294 31.8174 35.585 31.6687Z" fill="#212121"/>
<path d="M40.658 32.714C40.896 32.6758 41.0893 32.6375 41.238 32.5993V29.3678H40.4668V32.0639C40.4158 32.0766 40.3372 32.0872 40.231 32.0957C40.129 32.1042 40.0313 32.1085 39.9378 32.1085C39.6786 32.1085 39.4959 32.032 39.3897 31.879C39.2877 31.7261 39.2367 31.4711 39.2367 31.1142V29.3678H38.4655V31.2353C38.4655 31.4605 38.4888 31.6687 38.5356 31.8599C38.5823 32.0469 38.6588 32.2083 38.765 32.3443C38.8755 32.4803 39.02 32.5865 39.1984 32.663C39.3812 32.7395 39.6064 32.7777 39.8741 32.7777C40.1587 32.7777 40.4201 32.7565 40.658 32.714Z" fill="#212121"/>
<path fill-rule="evenodd" clip-rule="evenodd" d="M43.9724 29.3805C43.7982 29.3168 43.5836 29.2849 43.3286 29.2849C43.1162 29.2849 42.9165 29.3019 42.7295 29.3359C42.5425 29.3699 42.4002 29.4039 42.3025 29.4379L42.3981 30.0625C42.4916 30.0285 42.6127 29.9988 42.7614 29.9733C42.9101 29.9478 43.0737 29.935 43.2522 29.935C43.3839 29.935 43.4922 29.952 43.5772 29.986C43.6664 30.02 43.7366 30.0689 43.7875 30.1326C43.8428 30.1921 43.881 30.2622 43.9023 30.343C43.9235 30.4237 43.9341 30.5087 43.9341 30.5979V30.7254C43.8279 30.6999 43.7281 30.6829 43.6346 30.6744C43.5411 30.6617 43.4519 30.6553 43.3669 30.6553C43.1842 30.6553 43.0078 30.6744 42.8379 30.7126C42.6722 30.7466 42.5256 30.8061 42.3981 30.8911C42.2706 30.9718 42.1686 31.0781 42.0921 31.2098C42.0199 31.3415 41.9838 31.503 41.9838 31.6942C41.9838 31.8939 42.0157 32.0618 42.0794 32.1977C42.1474 32.3337 42.2387 32.4442 42.3535 32.5292C42.4724 32.6141 42.6148 32.6758 42.7805 32.714C42.9462 32.7522 43.1289 32.7714 43.3286 32.7714C43.6303 32.7714 43.9001 32.7522 44.1381 32.714C44.3803 32.68 44.5609 32.6503 44.6799 32.6248V30.6043C44.6799 30.4088 44.6565 30.2304 44.6097 30.0689C44.5673 29.9032 44.4929 29.763 44.3867 29.6482C44.2847 29.5335 44.1466 29.4443 43.9724 29.3805ZM43.9341 32.1212C43.8109 32.1467 43.6303 32.1595 43.3924 32.1595C43.1969 32.1595 43.0418 32.1255 42.9271 32.0575C42.8124 31.9853 42.755 31.8578 42.755 31.6751C42.755 31.5816 42.7763 31.5051 42.8187 31.4456C42.8612 31.3819 42.9165 31.333 42.9845 31.299C43.0567 31.265 43.1353 31.2417 43.2203 31.2289C43.3095 31.2162 43.3966 31.2098 43.4816 31.2098C43.5793 31.2098 43.6686 31.2162 43.7493 31.2289C43.83 31.2417 43.8916 31.2544 43.9341 31.2672V32.1212Z" fill="#212121"/>
<path fill-rule="evenodd" clip-rule="evenodd" d="M47.9698 33.5298C48.2418 33.2834 48.3777 32.8946 48.3777 32.3634V29.4761C48.2205 29.4336 48.0293 29.3933 47.8041 29.355C47.5789 29.3168 47.341 29.2977 47.0903 29.2977C46.8311 29.2977 46.5995 29.338 46.3955 29.4188C46.1916 29.4995 46.0173 29.6121 45.8729 29.7566C45.7327 29.9011 45.6243 30.0753 45.5478 30.2792C45.4756 30.4832 45.4395 30.7063 45.4395 30.9485C45.4395 31.2077 45.4735 31.4371 45.5414 31.6368C45.6137 31.8323 45.7114 31.9959 45.8346 32.1276C45.9621 32.2593 46.113 32.3592 46.2872 32.4272C46.4656 32.4952 46.6611 32.5292 46.8736 32.5292C47.035 32.5292 47.1774 32.51 47.3006 32.4718C47.4281 32.4336 47.53 32.3953 47.6065 32.3571V32.4845C47.6065 32.7352 47.5407 32.9243 47.4089 33.0518C47.2772 33.1793 47.0563 33.243 46.7461 33.243C46.5506 33.243 46.3679 33.226 46.1979 33.192C46.0322 33.158 45.8835 33.1134 45.7518 33.0582L45.6116 33.7147C45.7688 33.7699 45.943 33.8145 46.1342 33.8485C46.3297 33.8825 46.5294 33.8995 46.7333 33.8995C47.29 33.8995 47.7021 33.7763 47.9698 33.5298ZM46.4401 31.6687C46.2999 31.5157 46.2298 31.2757 46.2298 30.9485C46.2298 30.6468 46.3042 30.4046 46.4529 30.2219C46.6016 30.0349 46.8162 29.9414 47.0966 29.9414C47.2198 29.9414 47.3218 29.9478 47.4026 29.9605C47.4833 29.969 47.5513 29.9797 47.6065 29.9924V31.7197C47.5385 31.7664 47.4493 31.8068 47.3388 31.8408C47.2326 31.8748 47.1179 31.8918 46.9946 31.8918C46.7694 31.8918 46.5846 31.8174 46.4401 31.6687Z" fill="#212121"/>
<path fill-rule="evenodd" clip-rule="evenodd" d="M49.3015 30.2792C49.2165 30.5002 49.174 30.7573 49.174 31.0505C49.174 31.3012 49.208 31.5327 49.276 31.7452C49.344 31.9534 49.4481 32.1361 49.5883 32.2933C49.7286 32.4463 49.907 32.5674 50.1237 32.6566C50.3404 32.7416 50.5954 32.7841 50.8886 32.7841C51.0033 32.7841 51.1159 32.7777 51.2264 32.765C51.3368 32.7522 51.4388 32.7352 51.5323 32.714C51.63 32.697 51.715 32.6779 51.7873 32.6566C51.8637 32.6311 51.9232 32.6078 51.9657 32.5865L51.8637 31.9555C51.7745 31.9938 51.6513 32.0299 51.4941 32.0639C51.3411 32.0979 51.1711 32.1149 50.9842 32.1149C50.6655 32.1149 50.4212 32.0426 50.2512 31.8982C50.0855 31.7494 49.992 31.5412 49.9708 31.2735H52.1697C52.1739 31.231 52.176 31.1843 52.176 31.1333C52.1803 31.0781 52.1824 31.0292 52.1824 30.9867C52.1824 30.4216 52.0528 29.9967 51.7936 29.712C51.5387 29.4273 51.1818 29.2849 50.7229 29.2849C50.5274 29.2849 50.3362 29.3232 50.1492 29.3996C49.9623 29.4719 49.7965 29.5824 49.6521 29.7311C49.5076 29.8756 49.3908 30.0583 49.3015 30.2792ZM51.3666 30.4067C51.3963 30.5002 51.4112 30.6 51.4112 30.7063H49.9771C49.9899 30.6085 50.0132 30.5129 50.0472 30.4194C50.0812 30.326 50.128 30.2431 50.1875 30.1709C50.2512 30.0986 50.3277 30.0413 50.4169 29.9988C50.5061 29.952 50.6102 29.9287 50.7292 29.9287C50.8439 29.9287 50.9417 29.9499 51.0224 29.9924C51.1074 30.0307 51.1775 30.0859 51.2327 30.1581C51.2922 30.2261 51.3368 30.309 51.3666 30.4067Z" fill="#212121"/>
<path d="M57.3176 32.7013V32.0065H55.329V28.2842H54.5259V32.7013H57.3176Z" fill="#212121"/>
<path fill-rule="evenodd" clip-rule="evenodd" d="M57.7728 30.2792C57.6878 30.5002 57.6453 30.7573 57.6453 31.0505C57.6453 31.3012 57.6793 31.5327 57.7473 31.7452C57.8153 31.9534 57.9194 32.1361 58.0596 32.2933C58.1998 32.4463 58.3783 32.5674 58.595 32.6566C58.8117 32.7416 59.0666 32.7841 59.3598 32.7841C59.4746 32.7841 59.5872 32.7777 59.6976 32.765C59.8081 32.7522 59.9101 32.7352 60.0036 32.714C60.1013 32.697 60.1863 32.6779 60.2585 32.6566C60.335 32.6311 60.3945 32.6078 60.437 32.5865L60.335 31.9555C60.2458 31.9938 60.1225 32.0299 59.9653 32.0639C59.8124 32.0979 59.6424 32.1149 59.4554 32.1149C59.1367 32.1149 58.8924 32.0426 58.7225 31.8982C58.5567 31.7494 58.4633 31.5412 58.442 31.2735H60.6409C60.6452 31.231 60.6473 31.1843 60.6473 31.1333C60.6516 31.0781 60.6537 31.0292 60.6537 30.9867C60.6537 30.4216 60.5241 29.9967 60.2649 29.712C60.0099 29.4273 59.653 29.2849 59.1941 29.2849C58.9986 29.2849 58.8074 29.3232 58.6205 29.3996C58.4335 29.4719 58.2678 29.5824 58.1233 29.7311C57.9789 29.8756 57.862 30.0583 57.7728 30.2792ZM59.8379 30.4067C59.8676 30.5002 59.8825 30.6 59.8825 30.7063H58.4484C58.4611 30.6085 58.4845 30.5129 58.5185 30.4194C58.5525 30.326 58.5992 30.2431 58.6587 30.1709C58.7225 30.0986 58.7989 30.0413 58.8882 29.9988C58.9774 29.952 59.0815 29.9287 59.2005 29.9287C59.3152 29.9287 59.4129 29.9499 59.4937 29.9924C59.5787 30.0307 59.6488 30.0859 59.704 30.1581C59.7635 30.2261 59.8081 30.309 59.8379 30.4067Z" fill="#212121"/>
<path fill-rule="evenodd" clip-rule="evenodd" d="M63.2241 29.3805C63.0499 29.3168 62.8353 29.2849 62.5804 29.2849C62.3679 29.2849 62.1682 29.3019 61.9813 29.3359C61.7943 29.3699 61.6519 29.4039 61.5542 29.4379L61.6498 30.0625C61.7433 30.0285 61.8644 29.9988 62.0131 29.9733C62.1618 29.9478 62.3254 29.935 62.5039 29.935C62.6356 29.935 62.744 29.952 62.8289 29.986C62.9182 30.02 62.9883 30.0689 63.0393 30.1326C63.0945 30.1921 63.1328 30.2622 63.154 30.343C63.1753 30.4237 63.1859 30.5087 63.1859 30.5979V30.7254C63.0796 30.6999 62.9798 30.6829 62.8863 30.6744C62.7928 30.6617 62.7036 30.6553 62.6186 30.6553C62.4359 30.6553 62.2596 30.6744 62.0896 30.7126C61.9239 30.7466 61.7773 30.8061 61.6498 30.8911C61.5223 30.9718 61.4204 31.0781 61.3439 31.2098C61.2716 31.3415 61.2355 31.503 61.2355 31.6942C61.2355 31.8939 61.2674 32.0618 61.3311 32.1977C61.3991 32.3337 61.4905 32.4442 61.6052 32.5292C61.7242 32.6141 61.8665 32.6758 62.0322 32.714C62.198 32.7522 62.3807 32.7714 62.5804 32.7714C62.8821 32.7714 63.1519 32.7522 63.3898 32.714C63.632 32.68 63.8126 32.6503 63.9316 32.6248V30.6043C63.9316 30.4088 63.9082 30.2304 63.8615 30.0689C63.819 29.9032 63.7446 29.763 63.6384 29.6482C63.5364 29.5335 63.3983 29.4443 63.2241 29.3805ZM63.1859 32.1212C63.0627 32.1467 62.8821 32.1595 62.6441 32.1595C62.4487 32.1595 62.2936 32.1255 62.1788 32.0575C62.0641 31.9853 62.0067 31.8578 62.0067 31.6751C62.0067 31.5816 62.028 31.5051 62.0705 31.4456C62.113 31.3819 62.1682 31.333 62.2362 31.299C62.3084 31.265 62.387 31.2417 62.472 31.2289C62.5613 31.2162 62.6484 31.2098 62.7333 31.2098C62.8311 31.2098 62.9203 31.2162 63.001 31.2289C63.0818 31.2417 63.1434 31.2544 63.1859 31.2672V32.1212Z" fill="#212121"/>
<path d="M66.5077 29.9988C66.6224 30.02 66.7117 30.0413 66.7754 30.0625L66.9092 29.4124C66.871 29.3996 66.82 29.3869 66.7563 29.3742C66.6925 29.3572 66.6267 29.3444 66.5587 29.3359C66.4907 29.3232 66.4227 29.3147 66.3547 29.3104C66.2868 29.3019 66.2273 29.2977 66.1763 29.2977C65.9043 29.2977 65.6558 29.3232 65.4305 29.3742C65.2096 29.4209 65.0248 29.4719 64.876 29.5271V32.7013H65.6473V30.0307C65.6855 30.0179 65.7514 30.003 65.8448 29.986C65.9426 29.969 66.0339 29.9605 66.1189 29.9605C66.2676 29.9605 66.3972 29.9733 66.5077 29.9988Z" fill="#212121"/>
<path d="M68.0267 29.355C67.7887 29.3933 67.5954 29.4336 67.4467 29.4761V32.7013H68.2179V30.0115C68.2689 30.003 68.3475 29.9924 68.4537 29.9797C68.5599 29.9669 68.6619 29.9605 68.7597 29.9605C68.8914 29.9605 69.0019 29.9797 69.0911 30.0179C69.1846 30.0519 69.2568 30.1093 69.3078 30.19C69.363 30.2665 69.4013 30.3685 69.4225 30.4959C69.448 30.6192 69.4608 30.77 69.4608 30.9485V32.7013H70.232V30.8274C70.232 30.6022 70.2086 30.3961 70.1619 30.2091C70.1194 30.0179 70.0429 29.8564 69.9324 29.7247C69.8262 29.5887 69.6817 29.4846 69.499 29.4124C69.3163 29.3359 69.089 29.2977 68.817 29.2977C68.5281 29.2977 68.2646 29.3168 68.0267 29.355Z" fill="#212121"/>
<path d="M71.1814 32.7013H71.9526V29.3678H71.1814V32.7013Z" fill="#212121"/>
<path d="M71.8953 28.7368C71.9887 28.6518 72.0355 28.5371 72.0355 28.3926C72.0355 28.2439 71.9887 28.127 71.8953 28.042C71.8018 27.9571 71.6913 27.9146 71.5638 27.9146C71.4321 27.9146 71.3195 27.9571 71.226 28.042C71.1325 28.127 71.0858 28.2439 71.0858 28.3926C71.0858 28.5371 71.1325 28.6518 71.226 28.7368C71.3195 28.8218 71.4321 28.8643 71.5638 28.8643C71.6913 28.8643 71.8018 28.8218 71.8953 28.7368Z" fill="#212121"/>
<path d="M73.5165 29.355C73.2786 29.3933 73.0852 29.4336 72.9365 29.4761V32.7013H73.7077V30.0115C73.7587 30.003 73.8373 29.9924 73.9435 29.9797C74.0498 29.9669 74.1517 29.9605 74.2495 29.9605C74.3812 29.9605 74.4917 29.9797 74.5809 30.0179C74.6744 30.0519 74.7466 30.1093 74.7976 30.19C74.8529 30.2665 74.8911 30.3685 74.9123 30.4959C74.9378 30.6192 74.9506 30.77 74.9506 30.9485V32.7013H75.7218V30.8274C75.7218 30.6022 75.6984 30.3961 75.6517 30.2091C75.6092 30.0179 75.5327 29.8564 75.4222 29.7247C75.316 29.5887 75.1715 29.4846 74.9888 29.4124C74.8061 29.3359 74.5788 29.2977 74.3068 29.2977C74.0179 29.2977 73.7545 29.3168 73.5165 29.355Z" fill="#212121"/>
<path fill-rule="evenodd" clip-rule="evenodd" d="M79.0104 33.5298C79.2823 33.2834 79.4183 32.8946 79.4183 32.3634V29.4761C79.2611 29.4336 79.0699 29.3933 78.8447 29.355C78.6194 29.3168 78.3815 29.2977 78.1308 29.2977C77.8716 29.2977 77.64 29.338 77.4361 29.4188C77.2321 29.4995 77.0579 29.6121 76.9134 29.7566C76.7732 29.9011 76.6648 30.0753 76.5884 30.2792C76.5161 30.4832 76.48 30.7063 76.48 30.9485C76.48 31.2077 76.514 31.4371 76.582 31.6368C76.6542 31.8323 76.752 31.9959 76.8752 32.1276C77.0027 32.2593 77.1535 32.3592 77.3277 32.4272C77.5062 32.4952 77.7016 32.5292 77.9141 32.5292C78.0756 32.5292 78.2179 32.51 78.3411 32.4718C78.4686 32.4336 78.5706 32.3953 78.6471 32.3571V32.4845C78.6471 32.7352 78.5812 32.9243 78.4495 33.0518C78.3178 33.1793 78.0968 33.243 77.7866 33.243C77.5912 33.243 77.4084 33.226 77.2385 33.192C77.0728 33.158 76.924 33.1134 76.7923 33.0582L76.6521 33.7147C76.8093 33.7699 76.9835 33.8145 77.1747 33.8485C77.3702 33.8825 77.5699 33.8995 77.7739 33.8995C78.3305 33.8995 78.7427 33.7763 79.0104 33.5298ZM77.4807 31.6687C77.3405 31.5157 77.2704 31.2757 77.2704 30.9485C77.2704 30.6468 77.3447 30.4046 77.4934 30.2219C77.6422 30.0349 77.8567 29.9414 78.1372 29.9414C78.2604 29.9414 78.3624 29.9478 78.4431 29.9605C78.5238 29.969 78.5918 29.9797 78.6471 29.9924V31.7197C78.5791 31.7664 78.4898 31.8068 78.3794 31.8408C78.2731 31.8748 78.1584 31.8918 78.0352 31.8918C77.81 31.8918 77.6252 31.8174 77.4807 31.6687Z" fill="#212121"/>
<path fill-rule="evenodd" clip-rule="evenodd" d="M84.6723 32.185C84.7361 32.3549 84.7977 32.527 84.8572 32.7013H85.724C85.5583 32.2296 85.3989 31.7941 85.246 31.3946C85.0972 30.9952 84.9506 30.617 84.8062 30.2601C84.666 29.9032 84.5257 29.5632 84.3855 29.2403C84.2453 28.9174 84.1008 28.5987 83.9521 28.2842H83.1936C83.0449 28.5987 82.9005 28.9174 82.7602 29.2403C82.62 29.5632 82.4777 29.9032 82.3332 30.2601C82.193 30.617 82.0485 30.9952 81.8998 31.3946C81.7511 31.7941 81.5938 32.2296 81.4281 32.7013H82.2631L82.4415 32.1914C82.5053 32.0171 82.5669 31.8408 82.6264 31.6623H84.4875C84.547 31.8408 84.6086 32.015 84.6723 32.185ZM83.2191 29.9605C83.3466 29.6376 83.4592 29.3635 83.5569 29.1383C83.6504 29.355 83.7609 29.627 83.8884 29.9542C84.0158 30.2814 84.1476 30.634 84.2835 31.0122H82.8303C82.9663 30.634 83.0959 30.2835 83.2191 29.9605Z" fill="#212121"/>
<path fill-rule="evenodd" clip-rule="evenodd" d="M89.1441 31.7388C89.212 31.5264 89.246 31.2927 89.246 31.0377C89.246 30.77 89.2057 30.5299 89.1249 30.3175C89.0485 30.1008 88.9359 29.918 88.7871 29.7693C88.6427 29.6164 88.4663 29.4995 88.2581 29.4188C88.0499 29.338 87.8141 29.2977 87.5506 29.2977C87.2957 29.2977 87.0535 29.3168 86.824 29.355C86.5946 29.3933 86.4013 29.4336 86.244 29.4761V33.8804H87.0153V32.5865C87.1002 32.6333 87.2086 32.6758 87.3403 32.714C87.472 32.7522 87.6165 32.7714 87.7737 32.7714C88.0074 32.7714 88.2156 32.7289 88.3983 32.6439C88.5853 32.5589 88.7404 32.4399 88.8636 32.287C88.9868 32.134 89.0803 31.9513 89.1441 31.7388ZM88.2199 30.2474C88.3771 30.4386 88.4557 30.7063 88.4557 31.0505C88.4557 31.3734 88.3898 31.6305 88.2581 31.8217C88.1306 32.0129 87.9267 32.1085 87.6462 32.1085C87.5188 32.1085 87.3977 32.0894 87.2829 32.0511C87.1725 32.0086 87.0832 31.964 87.0153 31.9173V30.0115C87.0917 29.9903 87.1682 29.9775 87.2447 29.9733C87.3254 29.9648 87.4019 29.9605 87.4742 29.9605C87.8183 29.9605 88.0669 30.0561 88.2199 30.2474Z" fill="#212121"/>
<path fill-rule="evenodd" clip-rule="evenodd" d="M92.9409 31.7388C93.0089 31.5264 93.0429 31.2927 93.0429 31.0377C93.0429 30.77 93.0025 30.5299 92.9218 30.3175C92.8453 30.1008 92.7327 29.918 92.584 29.7693C92.4395 29.6164 92.2631 29.4995 92.0549 29.4188C91.8467 29.338 91.6109 29.2977 91.3475 29.2977C91.0925 29.2977 90.8503 29.3168 90.6209 29.355C90.3914 29.3933 90.1981 29.4336 90.0409 29.4761V33.8804H90.8121V32.5865C90.897 32.6333 91.0054 32.6758 91.1371 32.714C91.2689 32.7522 91.4133 32.7714 91.5705 32.7714C91.8042 32.7714 92.0124 32.7289 92.1952 32.6439C92.3821 32.5589 92.5372 32.4399 92.6604 32.287C92.7837 32.134 92.8771 31.9513 92.9409 31.7388ZM92.0167 30.2474C92.1739 30.4386 92.2525 30.7063 92.2525 31.0505C92.2525 31.3734 92.1867 31.6305 92.0549 31.8217C91.9275 32.0129 91.7235 32.1085 91.4431 32.1085C91.3156 32.1085 91.1945 32.0894 91.0798 32.0511C90.9693 32.0086 90.8801 31.964 90.8121 31.9173V30.0115C90.8886 29.9903 90.965 29.9775 91.0415 29.9733C91.1223 29.9648 91.1987 29.9605 91.271 29.9605C91.6152 29.9605 91.8637 30.0561 92.0167 30.2474Z" fill="#212121"/>
</svg>
